<?xml version="1.0" encoding="UTF-8" standalone="no"?>
<svg
   xmlns:dc="http://purl.org/dc/elements/1.1/"
   xmlns:cc="http://creativecommons.org/ns#"
   xmlns:rdf="http://www.w3.org/1999/02/22-rdf-syntax-ns#"
   xmlns:svg="http://www.w3.org/2000/svg"
   xmlns="http://www.w3.org/2000/svg"
   xmlns:sodipodi="http://sodipodi.sourceforge.net/DTD/sodipodi-0.dtd"
   xmlns:inkscape="http://www.inkscape.org/namespaces/inkscape"
   width="48"
   height="48"
   viewBox="0 0 48 48"
   version="1.1"
   id="svg4"
   sodipodi:docname="delete_timer.svg"
   inkscape:version="0.92.1 r15371">
  <metadata
     id="metadata10">
    <rdf:RDF>
      <cc:Work
         rdf:about="">
        <dc:format>image/svg+xml</dc:format>
        <dc:type
           rdf:resource="http://purl.org/dc/dcmitype/StillImage" />
        <dc:title></dc:title>
      </cc:Work>
    </rdf:RDF>
  </metadata>
  <defs
     id="defs8" />
  <sodipodi:namedview
     pagecolor="#ffffff"
     bordercolor="#666666"
     borderopacity="1"
     objecttolerance="10"
     gridtolerance="10"
     guidetolerance="10"
     inkscape:pageopacity="0"
     inkscape:pageshadow="2"
     inkscape:window-width="1600"
     inkscape:window-height="851"
     id="namedview6"
     showgrid="false"
     inkscape:zoom="4.9166667"
     inkscape:cx="41.681299"
     inkscape:cy="10.635379"
     inkscape:window-x="0"
     inkscape:window-y="25"
     inkscape:window-maximized="1"
     inkscape:current-layer="svg4" />
  <path
     d="m 20.476576,2.6879153 h -8.004 v 2.668 h 8.004 z m -5.336,17.3419997 h 2.668 v -8.004 h -2.668 z m 10.70535,-8.82441 1.90095,-1.9009497 c -0.57362,-0.68701 -1.2006,-1.31399 -1.88761,-1.88761 l -1.90095,1.90095 c -2.04769,-1.64082 -4.65566,-2.62798 -7.49041,-2.62798 -6.6366497,0 -11.9993297,5.3760197 -11.9993297,12.0059997 0,6.62998 5.36268,12.006 11.9993297,12.006 6.63665,0 12.01267,-5.37602 12.01267,-12.006 0,-2.83475 -0.98716,-5.43605 -2.63465,-7.49041 z m -9.37135,16.82841 c -5.15591,0 -9.3379997,-4.18209 -9.3379997,-9.338 0,-5.15591 4.1820897,-9.3379997 9.3379997,-9.3379997 5.15591,0 9.338,4.1820897 9.338,9.3379997 0,5.15591 -4.18209,9.338 -9.338,9.338 z"
     id="path2"
     inkscape:connector-curvature="0"
     style="stroke-width:0.667" />
  <path
     id="path2-3"
     d="m 34.621196,24.515604 -1.334,1.334 h -4.002 v 2.668 h 16.008006 v -2.668 h -4.002005 l -1.334001,-1.334 z m -4.002,5.336 v 13.34 c 0,1.4674 1.2006,2.668 2.668,2.668 h 8.004001 c 1.467399,0 2.668005,-1.2006 2.668005,-2.668 v -13.34 z m 25.144054,0 c 0.063,0.08196 0.12449,0.164838 0.1902,0.244914 0.003,-0.01014 0.007,-0.02631 0.0117,-0.04169 v -0.115943 c -0.0277,-0.03222 -0.0525,-0.05688 -0.0795,-0.08728 z m 0.1902,0.244914 c -10e-4,0.0043 -0.003,0.01381 -0.004,0.01824 0.005,0.0047 0.0103,0.0096 0.0156,0.01433 v -0.01694 c -0.004,-0.0051 -0.008,-0.01057 -0.0117,-0.01563 z m -0.12636,0.747769 c 0.0125,0.04108 0.0353,0.07886 0.0521,0.118549 10e-4,-0.002 0.004,-0.0045 0.005,-0.0065 -0.0413,-0.09799 -0.0816,-0.191988 -0.0573,-0.112035 z m -3.86912,6.709082 c 0.005,0.01387 0.009,0.02633 0.0143,0.04039 0.0293,0.07208 0.16154,0.266031 0.12377,0.198015 -0.10192,-0.183519 -0.0955,-0.16897 -0.1381,-0.2384 z m -2.588515,0.191502 c -0.04029,-0.02565 0.04509,0.04923 0.113337,0.110733 h 0.03648 c -0.04969,-0.03724 -0.0978,-0.0768 -0.149814,-0.110733 z"
     inkscape:connector-curvature="0"
     style="stroke-width:0.667" />
</svg>
